<svg width="70" height="70" viewBox="0 0 70 70" fill="none" xmlns="http://www.w3.org/2000/svg">
<path d="M35.0026 5.83301C18.888 5.83301 5.83595 18.8851 5.83595 34.9997C5.83067 41.1226 7.7544 47.0917 11.334 52.0592C14.9136 57.0268 19.9672 60.7405 25.7772 62.673C27.2355 62.9268 27.7839 62.0518 27.7839 61.2847C27.7839 60.5934 27.7459 58.298 27.7459 55.8538C20.4193 57.2043 18.5234 54.0688 17.9401 52.4268C17.6105 51.5868 16.1901 48.9997 14.9505 48.3055C13.9297 47.7601 12.4714 46.4097 14.9126 46.3747C17.2109 46.3368 18.8501 48.4893 19.3984 49.3643C22.0234 53.7743 26.2147 52.5347 27.8918 51.7705C28.1484 49.8747 28.9126 48.6001 29.7526 47.8709C23.263 47.1418 16.4818 44.6247 16.4818 33.4684C16.4818 30.2951 17.6105 27.673 19.4714 25.6313C19.1797 24.9022 18.1589 21.9126 19.763 17.9022C19.763 17.9022 22.2043 17.1351 27.7839 20.8888C30.1585 20.2316 32.6116 19.9009 35.0755 19.9059C37.5547 19.9059 40.0339 20.2326 42.3672 20.8888C47.9468 17.0972 50.388 17.9022 50.388 17.9022C51.9922 21.9126 50.9714 24.9022 50.6797 25.6313C52.5376 27.673 53.6693 30.2601 53.6693 33.4684C53.6693 44.6626 46.853 47.1418 40.3634 47.8709C41.4193 48.7809 42.3322 50.5309 42.3322 53.2668C42.3322 57.1663 42.2943 60.3018 42.2943 61.2876C42.2943 62.0518 42.8426 62.9618 44.3009 62.6701C50.0891 60.7133 55.1184 56.9916 58.6817 52.0283C62.2451 47.065 64.1632 41.1097 64.1664 34.9997C64.1664 18.8851 51.1143 5.83301 34.9997 5.83301" fill="#232946"/>
</svg>
