<svg width="130" height="130" viewBox="0 0 130 130" fill="none" xmlns="http://www.w3.org/2000/svg">
<g clip-path="url(#clip0_121_81)">
<path d="M110.76 110.779H91.507V80.6195C91.507 73.424 91.3575 64.168 81.471 64.168C71.435 64.168 69.901 71.994 69.901 80.0865V110.779H50.6545V48.75H69.1405V57.2H69.394C71.9745 52.325 78.26 47.19 87.646 47.19C107.153 47.19 110.76 60.021 110.76 76.7325V110.779ZM28.9055 40.261C22.7045 40.261 17.7255 35.2495 17.7255 29.081C17.7255 22.9125 22.711 17.901 28.9055 17.901C31.8706 17.901 34.7143 19.0789 36.811 21.1755C38.9076 23.2722 40.0855 26.1159 40.0855 29.081C40.0855 32.0461 38.9076 34.8898 36.811 36.9865C34.7143 39.0831 31.8706 40.261 28.9055 40.261ZM38.5515 110.786H19.2465V48.75H38.5515V110.786ZM120.393 0H9.594C4.29 0 0 4.1925 0 9.36V120.64C0 125.807 4.29 130 9.594 130H120.367C125.664 130 130 125.814 130 120.64V9.36C130 4.199 125.664 0 120.367 0H120.393Z" fill="#232946"/>
</g>
<defs>
<clipPath id="clip0_121_81">
<rect width="130" height="130" fill="white"/>
</clipPath>
</defs>
</svg>
