<svg width="583" height="655" viewBox="0 0 583 655" fill="none" xmlns="http://www.w3.org/2000/svg">
<path d="M296.333 2.4669C188.333 13.5336 87.666 87.5336 36.466 193.667C-0.734021 270.6 -9.80069 367.8 12.3326 455C26.9993 513.134 64.866 562.2 126.733 603.267C195.533 649 276.733 665 356.999 648.867C434.466 633.267 507.933 586.467 540.866 531.8C549.133 518.2 555.799 498.6 557.799 482.334C559.133 471.667 559.133 467.8 557.399 457.667C554.599 441.4 551.666 434.6 537.799 410.067C521.399 381.4 518.599 373.534 518.599 355.667C518.466 331.8 525.399 313.134 548.333 276.334C571.799 238.467 578.733 223 581.799 200.734C586.866 163.667 568.066 119.667 530.999 82.3336C473.133 24.2002 383.399 -6.3331 296.333 2.4669ZM316.866 220.334C348.733 225.934 366.999 249.267 366.999 284.2C366.866 313.934 351.799 336.067 328.733 340.467C325.666 341 324.333 342.067 324.333 343.667C324.333 345.534 326.066 346.334 332.599 347.534C354.999 351.4 370.866 366.867 374.999 389C378.333 406.467 375.799 429 368.866 442.467C359.399 461.134 343.266 470.867 315.799 474.334C297.533 476.734 233.799 475.4 220.333 472.334C192.333 466.2 176.466 451.267 168.733 423.667C165.399 411.267 165.266 368.2 168.733 355.667C173.133 339.8 182.333 322.867 191.533 313.8C196.066 309.267 201.133 304.734 202.866 303.534C205.666 301.8 205.799 301.134 204.466 298.6C203.133 296.067 201.799 295.667 195.666 295.667C181.533 295.667 171.133 287.934 165.666 273.4C161.799 263.267 162.333 245.934 166.733 237.534C170.333 230.334 180.333 221.667 186.733 219.934C194.999 217.667 304.199 218.067 316.866 220.334Z" fill="#232946"/>
<path d="M237.932 290.333C233.399 292.2 232.066 297.666 232.599 311.533C233.399 329.8 232.466 329.4 266.332 328.733C295.799 328.2 299.666 327.266 303.666 319.666C306.332 314.6 306.199 303.266 303.532 298.2C299.932 291 294.732 289.8 266.332 289.4C252.332 289.266 239.666 289.666 237.932 290.333Z" fill="#232946"/>
<path d="M243.667 356.2C243 356.467 240.733 357.133 238.733 357.533C233.533 358.733 231.933 365.133 232.6 381.133C233.4 401 232.067 400.333 267.4 400.333C294.333 400.333 295.933 400.2 301.4 397.267C308.333 393.533 311 388.2 311 377.667C311 367.533 308.333 362.733 300.6 359.267C295.133 356.867 291.267 356.467 269.667 356.067C256.067 355.933 244.467 355.933 243.667 356.2Z" fill="#232946"/>
</svg>
