<svg width="16" height="16" viewBox="0 0 16 16" fill="none" xmlns="http://www.w3.org/2000/svg">
<path d="M13.659 6.57682C14.7795 7.19482 14.779 8.80582 13.6585 9.42332L3.909 14.7943C2.826 15.3913 1.5 14.6078 1.5 13.3713V2.62532C1.5 1.38832 2.8265 0.605318 3.91 1.20232L13.659 6.57682ZM13.176 8.54732C13.274 8.49337 13.3557 8.4141 13.4126 8.3178C13.4695 8.22149 13.4996 8.11168 13.4996 7.99982C13.4996 7.88795 13.4695 7.77814 13.4126 7.68184C13.3557 7.58554 13.274 7.50627 13.176 7.45232L3.427 2.07832C3.33186 2.02581 3.22467 1.99901 3.11601 2.00058C3.00734 2.00214 2.90097 2.03201 2.80738 2.08724C2.71378 2.14246 2.63621 2.22114 2.58231 2.3155C2.5284 2.40986 2.50003 2.51665 2.5 2.62532V13.3713C2.49999 13.48 2.52831 13.5867 2.58215 13.6811C2.63599 13.7755 2.7135 13.8542 2.80703 13.9094C2.90057 13.9647 3.00689 13.9946 3.11552 13.9963C3.22415 13.9979 3.33133 13.9712 3.4265 13.9188L13.176 8.54732Z" fill="#B5A6F2"/>
</svg>
